<svg xmlns="http://www.w3.org/2000/svg" xmlns:xlink="http://www.w3.org/1999/xlink" viewBox="0 0 432 360"><defs><style>.cls-1,.cls-15,.cls-18,.cls-34{fill:none;}.cls-2{isolation:isolate;}.cls-3,.cls-49,.cls-5{fill:#8bcee5;}.cls-3{opacity:0.67;}.cls-4,.cls-49{opacity:0.35;}.cls-6,.cls-8{opacity:0.48;}.cls-7{fill:#4d82a3;}.cls-12,.cls-16,.cls-25,.cls-40,.cls-48,.cls-8{fill:#fff;}.cls-9{fill:#5ca28b;}.cls-10{fill:#ecb651;}.cls-11{clip-path:url(#clip-path);}.cls-13,.cls-22{fill:#74481c;}.cls-13{opacity:0.15;}.cls-14{opacity:0.37;}.cls-15{stroke:#74481c;}.cls-15,.cls-18,.cls-34{stroke-miterlimit:10;}.cls-16{opacity:0.2;mix-blend-mode:overlay;}.cls-17{fill:#dc903c;}.cls-18{stroke:#dc903c;}.cls-19{clip-path:url(#clip-path-2);}.cls-20{opacity:0.38;}.cls-21,.cls-24{opacity:0.4;}.cls-23,.cls-24,.cls-28,.cls-30,.cls-31,.cls-39,.cls-46,.cls-47{fill:#2b3448;}.cls-23{opacity:0.21;}.cls-25{opacity:0.12;}.cls-26{clip-path:url(#clip-path-3);}.cls-27{opacity:0.29;}.cls-28{opacity:0.34;}.cls-29{opacity:0.5;}.cls-30,.cls-40{opacity:0.61;}.cls-31{opacity:0.58;}.cls-32{clip-path:url(#clip-path-4);}.cls-33{fill:#de6b6b;}.cls-34{stroke:#2b3448;opacity:0.27;}.cls-35{clip-path:url(#clip-path-5);}.cls-36{opacity:0.36;}.cls-37{clip-path:url(#clip-path-6);}.cls-38{opacity:0.3;}.cls-41{clip-path:url(#clip-path-7);}.cls-42{clip-path:url(#clip-path-8);}.cls-43{opacity:0.25;}.cls-44,.cls-48{opacity:0.52;}.cls-45{clip-path:url(#clip-path-9);}.cls-46{opacity:0.16;}.cls-47{opacity:0.11;}</style><clipPath id="clip-path"><polygon class="cls-1" points="300.72 13.12 314.83 24.03 314.56 40.53 300.72 37.87 300.72 13.12"/></clipPath><clipPath id="clip-path-2"><path class="cls-1" d="M117.58,284.14s8,11.72-2.08,18.7L184,331.47s8-11.24-1.68-25.63Z"/></clipPath><clipPath id="clip-path-3"><path class="cls-1" d="M116.91,276.84l83.67,24.94s12.18-4.58,3.72-23.78l-84.89-19.77Z"/></clipPath><clipPath id="clip-path-4"><path class="cls-1" d="M114.53,249.17c-.69.67,82.31,20.84,82.31,20.84s10.56-2.73,1.42-22.73l-81.38-16.81S121.46,242.47,114.53,249.17Z"/></clipPath><clipPath id="clip-path-5"><path class="cls-1" d="M111,221.14s4-6.42.74-19l64.67,13.95s5.12,15.48-2.6,23Z"/></clipPath><clipPath id="clip-path-6"><path class="cls-1" d="M101,198l68.94,14.74s10.93-4.84,4.72-27.78l-71.86-8.6s5.12,13.61-1.54,20.57Z"/></clipPath><clipPath id="clip-path-7"><path class="cls-1" d="M116.18,167.85l48.56,8.64.16-27.59-48.34-3.26S125.26,158.51,116.18,167.85Z"/></clipPath><clipPath id="clip-path-8"><path class="cls-1" d="M51.46,259.34c-7-1.66-15-5.54-15.64-12.71-.34-4,1.89-8.08.93-12-1-4.2-5.2-6.67-8.79-9.07s-7.29-6.07-6.51-10.32c.71-3.87,4.88-6.28,5.91-10.07,1.81-6.62-6.56-11.92-7.12-18.76-.5-6.06,6.06-11.1,12.1-10.36s10.83,5.88,12.78,11.64c.92,2.74,1.36,5.71,2.94,8.14,3.93,6,13.51,6.63,16.55,13.1,2.28,4.87-.25,11,2,15.86,1.47,3.13,4.63,5.08,6.81,7.78,4.58,5.66,4.07,14.48-.37,20.25S61,261.38,53.72,260.91Z"/></clipPath><clipPath id="clip-path-9"><path class="cls-1" d="M61.52,256.38c-7.17-4.85-14.54-12.63-12.17-20.95,1.32-4.68,5.56-8.28,6.16-13.1.64-5.15-3-9.71-6-13.94s-5.61-9.94-2.92-14.38c2.44-4,8.16-5,10.93-8.8,4.85-6.67-2.3-16.2,0-24.13,2-7,11.55-9.89,18-6.49s9.68,11.22,9.42,18.53c-.13,3.48-.91,7-.16,10.4,1.87,8.39,12.35,13.21,13,21.78.5,6.45-5,12.25-4.47,18.7.32,4.15,3,7.69,4.34,11.64,2.73,8.32-1.59,18-9,22.62s-17.24,4.47-25.21.84Z"/></clipPath></defs><g class="cls-2"><g id="Camada_1" data-name="Camada 1"><ellipse class="cls-3" cx="217.49" cy="323.91" rx="202.89" ry="27.71"/><g class="cls-4"><path class="cls-5" d="M419.2,195.24c-7-21.37-22-40.72-42.64-49.71-21.44-9.34-48.51-7.9-64.71-24.77-8.69-9.05-12.32-21.67-18.18-32.78C273.83,50.37,229,32.25,186.57,29.41c-45.08-3-94.48,10.35-121,46.92-14.69,20.26-20.95,45.82-20.68,70.84.17,16.28,2.53,34.17-6.93,47.42-4,5.62-9.76,9.72-14.5,14.74C9.65,223.93,5.35,246,9.94,265.6c4.14,17.61,14.8,33.18,28.29,45.33,34.09-8.76,101.57-14.73,179.26-14.73,81.25,0,151.34,6.53,183.73,15.95C412.85,298.18,418.78,280,422,262,425.91,239.83,426.22,216.61,419.2,195.24Z"/></g><g class="cls-6"><path class="cls-7" d="M145,180.84c-10.59-7.05-22.17-15.6-23.88-28.2-1.09-8.07,2.07-17.1-2.29-24-3-4.71-8.64-6.87-13-10.29a26.35,26.35,0,0,1-10-19.82c-.15-5.81,1.65-11.64.77-17.39-1.33-8.59-8.24-15.07-14.75-20.84C89,61.56,96.34,62.84,103,65.94s12.6,8.28,15,15.17c2.56,7.27,1,15.58,4,22.65s9.86,11.32,15.3,16.61c15.51,15,19.65,40.53,9.7,59.71Z"/></g><path class="cls-8" d="M81.16,60.75a23.62,23.62,0,0,1,13.49,3.62,19,19,0,0,1,5.18,4.84,21.93,21.93,0,0,1,1.92,3c.53,1.06,1,2.17,1.42,3.26a78.36,78.36,0,0,1,3.27,13.71c.8,4.61,1.31,9.3,2.73,13.68a14.84,14.84,0,0,0,3.3,5.89,10.19,10.19,0,0,0,2.71,2,27.09,27.09,0,0,1,3.07,1.84,44.09,44.09,0,0,1,5.52,4.48,50.28,50.28,0,0,1,4.81,5.19,44.08,44.08,0,0,1,7.15,12.16,26.57,26.57,0,0,1,1.57,6.87,19.28,19.28,0,0,1-.66,7,20.32,20.32,0,0,0,.4-7,27,27,0,0,0-1.77-6.72A43.54,43.54,0,0,0,128,122.73a51.71,51.71,0,0,0-10.25-9.41,27.09,27.09,0,0,0-3-1.76,11.18,11.18,0,0,1-3-2.14,15.72,15.72,0,0,1-3.57-6.23c-1.44-4.56-1.91-9.25-2.67-13.85a85,85,0,0,0-3.11-13.61c-.41-1.08-.82-2.16-1.31-3.2a22.13,22.13,0,0,0-1.8-3,18.88,18.88,0,0,0-5-4.81A24,24,0,0,0,81.16,60.75Z"/><g class="cls-6"><path class="cls-7" d="M314.77,209.9c1.19-4.47-1.85-9.28-.6-13.73,1.6-5.69,9.09-8.06,13.84-12.15,5.06-4.36,6.95-10.77,8.64-16.86l5.25-19c-1.12,9.71,8.33,19.5,4.83,28.71-1.37,3.61-4.63,6.58-5.29,10.35-.8,4.52,2.29,8.88,3.49,13.37,2.13,7.94-2.37,16.75-10.48,20.52a16.7,16.7,0,0,1-11.91,1.14c-4.93-1.59-8.08-5.94-9.68-10.31Z"/></g><path class="cls-8" d="M318.62,219.87a26,26,0,0,0,6.74-6.57,22.38,22.38,0,0,0,3.83-8.48,31.14,31.14,0,0,0,.58-4.64,44.91,44.91,0,0,1,.54-4.77,28.16,28.16,0,0,1,3.09-9.11c.79-1.41,1.73-2.72,2.6-4a18.4,18.4,0,0,0,1.21-2c.34-.7.68-1.41,1-2.13a63.25,63.25,0,0,0,3.14-8.88,41.3,41.3,0,0,0,1.49-9.29,23.75,23.75,0,0,0-1.34-9.3,22.9,22.9,0,0,1,1.83,9.3,41.49,41.49,0,0,1-1.24,9.48,54.84,54.84,0,0,1-3,9.06c-.32.73-.65,1.46-1,2.18a20.54,20.54,0,0,1-1.24,2.09c-.88,1.34-1.78,2.62-2.53,4a26.91,26.91,0,0,0-3.06,8.78,38.25,38.25,0,0,0-.57,4.66,27.62,27.62,0,0,1-.7,4.76A24.25,24.25,0,0,1,318.62,219.87Z"/><g class="cls-6"><path class="cls-7" d="M313.26,257.35a28.55,28.55,0,0,1,9.83-25.06c7.6-6.51,18.65-9.42,24.24-17.55,6.26-9.11,3.44-21.54,8.24-31.41,5-10.35,17.49-16.07,22.56-26.4l-2,41.35c-.26,5.32-.54,10.77-2.68,15.7-4.2,9.7-14.95,16-18.27,26.05-1.29,3.92-1.33,8.1-2.11,12.14-1.47,7.57-5.94,14.93-13.13,18.52s-17.15,2.44-22.08-3.68c-1.6-2-3.77-4.75-6.14-3.64Z"/></g><path class="cls-8" d="M322.64,255.24a31.54,31.54,0,0,0,6.81-2.48,21.49,21.49,0,0,0,5.86-4.17,14.64,14.64,0,0,0,3.66-6.05c.71-2.32,1.4-4.66,2.17-7,1.52-4.6,3.49-9.24,6.84-12.94a16.22,16.22,0,0,1,1.3-1.32l.69-.64.72-.58.74-.57.77-.51.77-.52.69-.49a26.32,26.32,0,0,0,4.49-5.52A104.89,104.89,0,0,0,365,199.73c2.05-4.39,3.89-8.87,5.61-13.41s3.25-9.13,4.51-13.81c.65-2.34,1.22-4.69,1.66-7.08a38,38,0,0,0,.73-7.22,35.5,35.5,0,0,1-.47,7.27c-.36,2.4-.86,4.79-1.44,7.15-1.18,4.73-2.64,9.37-4.27,14s-3.48,9.09-5.5,13.53A105.85,105.85,0,0,1,359,213a26.92,26.92,0,0,1-4.72,5.71l-.79.56-.75.49-.75.49-.7.55-.7.55-.66.6a15,15,0,0,0-1.26,1.26c-3.25,3.52-5.16,8-6.79,12.58-.81,2.28-1.54,4.6-2.29,6.91a15,15,0,0,1-3.92,6.21,21.93,21.93,0,0,1-6.08,4.06A30,30,0,0,1,322.64,255.24Z"/><path class="cls-3" d="M115.5,302.84s-10.47-.46-7.18,5.29,63.2,31.19,72.23,32S333.22,318,334.86,313.87s-1.64-10.4-1.64-10.4Z"/><rect class="cls-9" x="113.91" y="9.13" width="186.81" height="28.74"/><rect class="cls-10" x="252.48" y="9.13" width="9.27" height="28.74"/><rect class="cls-10" x="267.03" y="9.13" width="4.08" height="28.74"/><rect class="cls-10" x="276.4" y="9.13" width="1.24" height="28.74"/><polygon class="cls-9" points="300.72 9.13 319.08 23.76 314.83 24.03 300.72 13.12 300.72 9.13"/><path class="cls-10" d="M149.36,14.26H137.69a9.9,9.9,0,1,0,0,19.79h11.67Z"/><rect class="cls-10" x="153.42" y="14.43" width="104.68" height="2.67" rx="1.26" transform="translate(0.05 -0.58) rotate(0.16)"/><rect class="cls-10" x="153.32" y="19.95" width="104.68" height="2.67" rx="1.26" transform="translate(0.06 -0.55) rotate(0.15)"/><rect class="cls-10" x="153.22" y="25.47" width="104.68" height="2.67" rx="1.26" transform="translate(0.07 -0.55) rotate(0.15)"/><rect class="cls-10" x="153.12" y="30.98" width="104.68" height="2.67" rx="1.26" transform="translate(0.09 -0.55) rotate(0.15)"/><g class="cls-11"><polygon class="cls-12" points="300.72 13.12 314.83 24.03 314.56 40.53 300.72 37.87 300.72 13.12"/><path class="cls-13" d="M314.15,40.28a35.37,35.37,0,0,1-11.52-12.66,41.56,41.56,0,0,1-1.91-4.12V37.87l13.84,2.66v0A2.82,2.82,0,0,1,314.15,40.28Z"/><g class="cls-14"><line class="cls-15" x1="285.41" y1="9.44" x2="327.63" y2="32.75"/><line class="cls-15" x1="285.12" y1="15.58" x2="328.41" y2="34.12"/><line class="cls-15" x1="284.75" y1="23.54" x2="329.22" y2="35.55"/><line class="cls-15" x1="284.24" y1="34.28" x2="330.06" y2="37.03"/></g></g><rect class="cls-16" x="113.91" y="9.13" width="186.81" height="10.07"/><rect class="cls-13" x="113.91" y="32.24" width="186.81" height="5.63"/><path class="cls-10" d="M120.5,297.87l-9.28,3.91S99,304,182.35,333.61l7.47-1.09Z"/><path class="cls-10" d="M182.35,333.61s9.59-8-.08-27.77L330.14,284s9.65,13.32-.46,25.64Z"/><path class="cls-12" d="M117.58,284.14s8,11.72-2.08,18.7L184,331.47s8-11.24-1.68-25.63Z"/><path class="cls-10" d="M182.27,305.84,113,283.09s-1.88-3.2,1.06-2.68l134.54-12.69L330.14,284Z"/><path class="cls-17" d="M207.15,310.42a7.68,7.68,0,0,0-4.27-3.44,12.5,12.5,0,0,0,1.17,6.29,7.81,7.81,0,0,0,4.3,3.49A12.6,12.6,0,0,0,207.15,310.42Z"/><path class="cls-17" d="M208.4,310.21a9.3,9.3,0,0,1,3.47-4.74A12.69,12.69,0,0,1,212,312a9.34,9.34,0,0,1-3.48,4.77A12.89,12.89,0,0,1,208.4,310.21Z"/><path class="cls-17" d="M209.64,322.63a8,8,0,0,0,4.36,3.56,12.87,12.87,0,0,0-1.24-6.44,7.86,7.86,0,0,0-4.33-3.52A12.8,12.8,0,0,0,209.64,322.63Z"/><path class="cls-17" d="M208.34,322.47a9.4,9.4,0,0,1-3.51,4.82,13.2,13.2,0,0,1-.06-6.6,9.44,9.44,0,0,1,3.49-4.79A12.93,12.93,0,0,1,208.34,322.47Z"/><polygon class="cls-18" points="214.38 326.2 204.91 327.72 202.91 306.97 212.23 305.41 214.38 326.2"/><path class="cls-17" d="M270.85,299.87a7.68,7.68,0,0,0-4.27-3.44,12.5,12.5,0,0,0,1.17,6.29,7.81,7.81,0,0,0,4.29,3.49A12.68,12.68,0,0,0,270.85,299.87Z"/><path class="cls-17" d="M272.09,299.67a9.42,9.42,0,0,1,3.47-4.75,12.76,12.76,0,0,1,.1,6.49,9.39,9.39,0,0,1-3.48,4.78A13,13,0,0,1,272.09,299.67Z"/><path class="cls-17" d="M273.34,312.08a8,8,0,0,0,4.36,3.57,12.87,12.87,0,0,0-1.24-6.44,7.89,7.89,0,0,0-4.33-3.52A12.75,12.75,0,0,0,273.34,312.08Z"/><path class="cls-17" d="M272,311.92a9.52,9.52,0,0,1-3.51,4.83,13.17,13.17,0,0,1-.07-6.61,9.43,9.43,0,0,1,3.5-4.79A13.07,13.07,0,0,1,272,311.92Z"/><polygon class="cls-18" points="278.07 315.65 268.6 317.17 266.61 296.42 275.93 294.86 278.07 315.65"/><path class="cls-17" d="M320.86,292.6a7.7,7.7,0,0,0-4.27-3.28,11.4,11.4,0,0,0,1.17,6,7.79,7.79,0,0,0,4.29,3.31A11.49,11.49,0,0,0,320.86,292.6Z"/><path class="cls-17" d="M322.1,292.4a9,9,0,0,1,3.47-4.51,11.55,11.55,0,0,1,.1,6.17,9,9,0,0,1-3.48,4.54A11.74,11.74,0,0,1,322.1,292.4Z"/><path class="cls-17" d="M323.35,304.21a8,8,0,0,0,4.36,3.39,11.84,11.84,0,0,0-1.24-6.13,7.87,7.87,0,0,0-4.33-3.34A11.63,11.63,0,0,0,323.35,304.21Z"/><path class="cls-17" d="M322.05,304.06a9.1,9.1,0,0,1-3.51,4.58,11.92,11.92,0,0,1-.07-6.28,9.12,9.12,0,0,1,3.5-4.56A11.88,11.88,0,0,1,322.05,304.06Z"/><polygon class="cls-18" points="328.08 307.6 318.61 309.04 316.62 289.32 325.94 287.83 328.08 307.6"/><polygon class="cls-17" points="263.92 298.58 216.08 305.27 216.34 307.23 264.12 300.47 263.92 298.58"/><polygon class="cls-17" points="264.42 304.05 216.75 310.96 217.01 312.92 264.62 305.93 264.42 304.05"/><polygon class="cls-17" points="264.89 310.19 217.41 317.36 217.67 319.3 265.09 312.06 264.89 310.19"/><polygon class="cls-17" points="265.17 315.36 217.84 322.74 218.1 324.67 265.37 317.21 265.17 315.36"/><polygon class="cls-17" points="314.29 291.01 278.17 295.95 278.44 297.92 314.51 292.9 314.29 291.01"/><polygon class="cls-17" points="314.87 296.47 278.88 301.64 279.15 303.59 315.08 298.34 314.87 296.47"/><polygon class="cls-17" points="315.45 302.6 279.61 308.03 279.88 309.96 315.66 304.46 315.45 302.6"/><polygon class="cls-17" points="315.84 307.75 280.13 313.39 280.39 315.32 316.06 309.6 315.84 307.75"/><path class="cls-18" d="M190.15,330.63s7.63-9.83-.46-22.9"/><g class="cls-19"><path class="cls-13" d="M175.61,313c-11.83,1-23.56-1.65-35-4.28a109.45,109.45,0,0,1-22.9-7.8,14.41,14.41,0,0,1-2.2,1.88L184,331.47s6-8.47,1.27-20.13A57,57,0,0,1,175.61,313Z"/><g class="cls-20"><g class="cls-21"><path class="cls-22" d="M184.55,330c-1.19-1.08-45.06-19.05-68.1-28.4l.2-.49c.17.07,17.31,7,34.19,14,34.39,14.16,34.29,14.46,34.17,14.83l-.5-.16.25.08Z"/></g><g class="cls-21"><path class="cls-22" d="M186,326.63c-1.2-1.07-45.12-18.93-68.17-28.23l.2-.49c.17.07,17.32,7,34.22,13.9,34.42,14.08,34.32,14.38,34.2,14.75l-.5-.16.25.08Z"/></g><g class="cls-21"><path class="cls-22" d="M187.72,322.85c-1.21-1.06-45.27-18.56-68.4-27.67l.19-.49c.18.06,17.38,6.84,34.34,13.61,34.53,13.8,34.44,14.1,34.32,14.47l-.25-.07Z"/></g><g class="cls-21"><path class="cls-22" d="M187.64,317.63c-1.23-1-45.8-17.2-69.19-25.61l.18-.5c.17.06,17.57,6.32,34.72,12.58,34.94,12.76,34.85,13.06,34.74,13.44l-.25-.08Z"/></g><g class="cls-21"><path class="cls-22" d="M187.92,311.92c-1.26-1-46.19-16.13-69.77-24l.16-.5c.18.06,17.72,5.91,35,11.77,35.22,11.94,35.14,12.24,35,12.62l-.26-.07Z"/></g></g></g><path class="cls-16" d="M220.34,310.75q37-5,74-9.91,19.95-2.68,39.9-5.46A25.1,25.1,0,0,0,330.14,284L182.27,305.84a45.82,45.82,0,0,1,3.58,9.81C197.16,313,208.85,312.3,220.34,310.75Z"/><path class="cls-13" d="M312,306.57c-5.42.71-10.86,1.18-16.27,1.88s-10.67,1.47-16,2.31c-10.76,1.68-21.48,3.57-32.22,5.34-10.95,1.81-21.89,3.74-32.89,5.19-5,.65-9.93,1.18-14.88,1.87a70,70,0,0,1-13.24,1c-.68,6.55-4.11,9.44-4.11,9.44l147.33-23.94a20.39,20.39,0,0,0,3.54-6.2C326.11,304.37,319,305.65,312,306.57Z"/><path class="cls-7" d="M117.4,275.06s-5.07-.25-4,1.88.81,3.2,6.16,5.32,77.78,24.07,77.78,23.27,138-21.25,138-21.25,8.77-12.31.18-28.31L253,244.74,116.27,255s-4.53,1.88,3.22,3.19Z"/><path class="cls-23" d="M322.15,278.93c-8.83,1.34-17.73,2.32-26.52,3.94-7.83,1.43-15.61,3.12-23.49,4.4-8.09,1.31-16.23,2.39-24.39,3.16s-16.23,1.62-24.35,2.46c-7.61.8-15.41,1.59-23,.71-14.8-1.7-28.6-7.71-42.79-11.87-7.79-2.28-15.67-4.26-23.51-6.38-3.6-1-7.11-2.09-10.64-3.31-1.8-.62-3.6-1.22-5.43-1.74l-.59,4.76s-5.07-.25-4,1.88.81,3.2,6.16,5.32,77.78,24.07,77.78,23.27,138-21.25,138-21.25a24.35,24.35,0,0,0,3.33-8.24C333.14,276.85,327.66,278.1,322.15,278.93Z"/><path class="cls-24" d="M334.62,258a25.65,25.65,0,0,1,2.56,5.73,27,27,0,0,1,1.19,6.2,20,20,0,0,1-.63,6.31,14.51,14.51,0,0,1-3.05,5.5c1.21-.62,2.14-1.47,2.25-5.7a25.53,25.53,0,0,0,.38-6,39,39,0,0,0-.93-6.05A56,56,0,0,0,334.62,258Z"/><path class="cls-10" d="M330.33,258.88,213.15,275.12l2.3,21.88L332.3,280.69Zm-2,21.06-1.74-19.22,2.73-.89,1.82,20.23ZM218.63,275l51.95-7.2.95,9.67-52.88-2.27Zm106.73-14.79,0,.14-52.46,17.18h-.24l-1-9.88ZM269.18,278.1l-15,2.09.07.67,15-2.09-48.58,15.91-2-18.74Zm20.23-2.81-12.73,1.77,48.76-16,1.71,18.81-50.44-2.17L289.47,276Zm-71.85.6,2,19.16-3.07,1-2.13-20.3ZM220,295.64l.79-.11v-.15l50.89-16.67.93,9.59,1.14-.16-1-9.79.24-.08,53.54,2.29.67,0v.08l.44-.06h.28L219.7,295.73Z"/><path class="cls-25" d="M335.51,256l-.92-.12c-1.15.2-2.29.44-3.43.7-4.12,1-8.16,2.22-12.26,3.25s-8.55,2-12.83,2.9c-8.7,1.87-17.45,3.54-26.27,4.77-18.15,2.53-36.51,3.06-54.62,6-7.09,1.14-14.11,2.66-21.15,4a36.85,36.85,0,0,1,2.82,7.79,17.27,17.27,0,0,1,.15,8.21c.42,0,.82,0,1.24-.08a214.63,214.63,0,0,0,22.69-3.33q11.64-2.19,23.32-4.09c16-2.63,32.22-4,48.31-6.16,7.67-1,15.32-2.09,22.95-3.35,4.42-.74,9-2.6,13.58-3A29.2,29.2,0,0,0,335.51,256Z"/><path class="cls-12" d="M116.91,276.84l83.67,24.94s12.18-4.58,3.72-23.78l-84.89-19.77Z"/><path class="cls-13" d="M204.88,279.33a74.73,74.73,0,0,1-11.79,2.94,152.26,152.26,0,0,1-44.35.93c-6.68-.84-13.34-2.05-20-3.31l-1.34-.27,73.23,22.16s11.43-4.37,4.21-22.45Z"/><path class="cls-24" d="M207.6,276.45a36.12,36.12,0,0,1,2.55,6.44,33,33,0,0,1,1.32,6.84,17.43,17.43,0,0,1-.74,7,9.54,9.54,0,0,1-1.78,3.07,7.94,7.94,0,0,1-2.85,2,9,9,0,0,0,3.86-5.31,20.09,20.09,0,0,0,.45-6.66,48.33,48.33,0,0,0-1-6.72c-.24-1.11-.52-2.22-.83-3.32S207.93,277.56,207.6,276.45Z"/><g class="cls-26"><g class="cls-27"><polygon class="cls-22" points="207.51 282.62 118.06 258.98 118.2 258.47 207.65 282.11 207.51 282.62"/></g><g class="cls-27"><polygon class="cls-22" points="209.34 286.06 116.78 261.32 116.92 260.81 209.49 285.55 209.34 286.06"/></g><g class="cls-27"><polygon class="cls-22" points="208.06 288.57 115.5 263.84 115.64 263.32 208.2 288.06 208.06 288.57"/></g><g class="cls-27"><polygon class="cls-22" points="207.99 291.45 115.43 266.72 115.57 266.21 208.13 290.94 207.99 291.45"/></g><g class="cls-27"><polygon class="cls-22" points="207.39 294.66 114.83 269.93 114.97 269.42 207.53 294.15 207.39 294.66"/></g><g class="cls-27"><polygon class="cls-22" points="207.32 297.54 114.76 272.81 114.9 272.3 207.46 297.03 207.32 297.54"/></g><g class="cls-27"><polygon class="cls-22" points="207.25 300.43 114.69 275.69 114.83 275.18 207.39 299.92 207.25 300.43"/></g></g><path class="cls-9" d="M110,250.78l87.12,22.44,136.67-18.31s9.31-9.64.19-24.83l-92.42-8.8-132.17,6s-1.86,2.94,7.49,3.18c0,0,8.47,11.83-2.35,18.7C114.53,249.17,108.65,246.25,110,250.78Z"/><path class="cls-16" d="M334.92,231.76c-12.83,1.73-25.76,2.93-38.6,4.57-16.31,2.08-32.71,3.3-49.06,4.95-16.08,1.62-32,4.09-48.09,6l-.13,0c2.43,4.15,4.43,8.59,3.82,12.85.85,0,1.71,0,2.57,0,3.76-.07,7.49-.57,11.23-1s7.67-.88,11.51-1.33q11.51-1.37,23-2.78c15.42-1.88,30.83-3.74,46.29-5.28,13.48-1.34,26.91-3.14,40.38-4.48A23,23,0,0,0,334.92,231.76Z"/><path class="cls-13" d="M317.22,253c-8.64,1-17.31,1.83-26,2.73-15.36,1.61-30.7,3.5-46,5.37q-11.5,1.4-23,2.75c-7.6.88-15.2,2-22.86,1.49a142.88,142.88,0,0,1-21.45-3.57c-7.18-1.6-14.39-3-21.59-4.47s-14.51-3-21.69-4.88c-3.59-.91-7.16-1.73-10.71-2.8-2.72-.83-5.45-1.63-8.23-2.21a16.63,16.63,0,0,1-1.37,1.78s-5.88-2.92-4.53,1.61l87.12,22.44,136.67-18.31a15.59,15.59,0,0,0,2.59-4.13C329.84,251.45,323.53,252.22,317.22,253Z"/><rect class="cls-28" x="209.37" y="251.35" width="12.7" height="12.7" transform="translate(-118.41 293.83) rotate(-56.24)"/><g class="cls-29"><path class="cls-12" d="M221.34,256.58l-4.79,7.17.7-.19-6.28-4.2c-.18-.12-.77-.37-.87-.58,0,0,0,0,.07-.07a4.73,4.73,0,0,1,.32-.46l2.43-3.65,2-2.94-.7.18,7.17,4.8c.17.11.78-.19.68-.25l-7.16-4.79a.72.72,0,0,0-.7.19L209.39,259s0,0,0,.05l7.17,4.79a.73.73,0,0,0,.7-.18l4.79-7.17C222.1,256.38,221.46,256.4,221.34,256.58Z"/></g><polygon class="cls-30" points="200.8 245.65 217.16 243.9 233.53 242.22 266.27 238.87 299.03 235.7 315.41 234.12 331.79 232.62 315.43 234.37 299.06 236.05 266.32 239.4 233.56 242.57 217.19 244.15 200.8 245.65"/><path class="cls-28" d="M229.42,243s13.67,13.83,4.42,25.21l11.92-1.36A27.8,27.8,0,0,0,241,241.92Z"/><path class="cls-28" d="M310.13,234.91s13.05,12.24,3.79,22.62l12.53-1.27s4.61-11.06-4.71-22.32Z"/><path class="cls-31" d="M203.06,269.62a23.1,23.1,0,0,0,1.05-5.15,29,29,0,0,0,0-5.19,25,25,0,0,0-.35-2.58c-.08-.43-.14-.86-.23-1.28l-.31-1.27c-.17-.86-.49-1.68-.72-2.53s-.59-1.66-.85-2.52c.47.75.91,1.53,1.33,2.32a23.32,23.32,0,0,1,1,2.49,22,22,0,0,1,1.15,5.28,20.37,20.37,0,0,1-.26,5.4A14.47,14.47,0,0,1,203.06,269.62Z"/><g class="cls-32"><path class="cls-12" d="M114.53,249.17c-.69.67,82.31,20.84,82.31,20.84s10.56-2.73,1.42-22.73l-81.38-16.81S121.46,242.47,114.53,249.17Z"/><g class="cls-27"><rect class="cls-22" x="157.72" y="198.77" width="0.53" height="85.72" transform="translate(-111.64 344.83) rotate(-77.77)"/></g><g class="cls-27"><rect class="cls-22" x="158.01" y="201.37" width="0.53" height="87.64" transform="translate(-113.96 350.35) rotate(-78.28)"/></g><g class="cls-27"><rect class="cls-22" x="159.56" y="204.53" width="0.53" height="90.56" transform="translate(-118.05 353.42) rotate(-77.84)"/></g><g class="cls-27"><rect class="cls-22" x="159.33" y="208.47" width="0.53" height="91.06" transform="translate(-122.69 355.5) rotate(-77.64)"/></g><g class="cls-27"><rect class="cls-22" x="157.85" y="212.21" width="0.53" height="90.47" transform="translate(-128.51 352.97) rotate(-76.88)"/></g></g><path class="cls-13" d="M196.24,252.39a61,61,0,0,1-18.53,2.13c-7.61-.13-15.22-.91-22.78-1.67-8.39-.85-16.76-1.91-25.17-2.47-4.07-.26-8.14-.41-12.21-.54l-1.19,0c12.12,3.57,80.48,20.19,80.48,20.19s9.17-2.38,3-18.91C198.67,251.58,197.47,252,196.24,252.39Z"/><polygon class="cls-33" points="190.78 256.56 190.05 280.06 192.45 277.39 193.79 280.86 194.79 257.35 190.78 256.56"/><path class="cls-33" d="M106.45,223.82l67.08,19.29,157.52-12s10.91-9.91,1-24l-113-11.94-113.36,2.25a1.82,1.82,0,0,0-1.18,3.17h0l7.21,1.58s10,14.81-.74,19l-4,.28Z"/><path class="cls-13" d="M296.09,227.61C280,229,264,231.26,247.84,232.69s-32.45,2.42-48.71,2.82c-7.93.19-15.89.38-23.81.12a112,112,0,0,1-23.52-3.56A177.59,177.59,0,0,1,130,225.13a171.74,171.74,0,0,0-17.72-6.4,9.69,9.69,0,0,1-1.26,2.41l-4,.28-.52,2.4,67.08,19.29,157.52-12a17.5,17.5,0,0,0,3.9-5.9C322,225.72,309,226.46,296.09,227.61Z"/><path class="cls-24" d="M178.53,239.54a18.79,18.79,0,0,0,2.63-5.61,23.67,23.67,0,0,0,.91-6.08,26.36,26.36,0,0,0-.14-3.08c-.05-1-.29-2-.43-3.07s-.48-2-.7-3-.62-2-.89-3c.49.93.93,1.9,1.38,2.86s.76,2,1,3a23.8,23.8,0,0,1,.82,6.35,19.49,19.49,0,0,1-1.18,6.32A13.89,13.89,0,0,1,178.53,239.54Z"/><path class="cls-24" d="M329.61,229.06a14.79,14.79,0,0,0,2.54-4.65,16,16,0,0,0,.83-5.13,16.4,16.4,0,0,0-.21-2.61,21.16,21.16,0,0,0-.51-2.59c-.22-.85-.54-1.68-.78-2.55s-.68-1.65-1-2.52c.5.75,1,1.53,1.44,2.31s.8,1.65,1.1,2.52a17.22,17.22,0,0,1,1,5.44,14,14,0,0,1-1.12,5.43A11,11,0,0,1,329.61,229.06Z"/><ellipse class="cls-34" cx="197.48" cy="227.61" rx="8.23" ry="8.98" transform="translate(-0.69 0.6) rotate(-0.17)"/><path class="cls-34" d="M327.54,219.43c0,5-3.66,9-8.2,9s-8.25-4-8.26-9,3.65-9,8.2-9S327.53,214.47,327.54,219.43Z"/><path class="cls-28" d="M256.26,211.85s7.66,13.28,1.41,24.87l19-1.52s5.29-11.14-2.24-24.41Z"/><polygon class="cls-28" points="201.04 231.37 198.2 230.41 195.8 232.21 195.83 229.21 193.38 227.49 196.24 226.59 197.12 223.72 198.86 226.17 201.86 226.12 200.07 228.53 201.04 231.37"/><path class="cls-16" d="M176.39,216.13l155.65-9s3.87,5.87,3.88,9.47l-157.65,8.86S178.92,218,176.39,216.13Z"/><g class="cls-35"><path class="cls-12" d="M111,221.14s4-6.42.74-19l64.67,13.95s5.12,15.48-2.6,23Z"/><g class="cls-36"><polygon class="cls-22" points="178.43 218.53 104.56 203.21 104.67 202.69 178.54 218.01 178.43 218.53"/></g><g class="cls-36"><polygon class="cls-22" points="181.72 222.81 103.96 206.69 104.07 206.17 181.82 222.29 181.72 222.81"/></g><g class="cls-36"><polygon class="cls-22" points="180.7 225.88 102.95 209.76 103.06 209.24 180.81 225.37 180.7 225.88"/></g><g class="cls-36"><polygon class="cls-22" points="180.71 229.36 102.96 213.24 103.06 212.72 180.82 228.84 180.71 229.36"/></g><g class="cls-36"><rect class="cls-22" x="141.64" y="184.61" width="0.53" height="79.41" transform="translate(-108.32 312.85) rotate(-77.17)"/></g><g class="cls-36"><rect class="cls-22" x="140.49" y="187.69" width="0.53" height="79.41" transform="translate(-113.24 311.1) rotate(-76.48)"/></g></g><path class="cls-13" d="M169.49,223c-9.6,2.89-20,2.94-29.88,2.09-9.57-.82-18.9-2.8-28.28-4.65a7.29,7.29,0,0,1-.35.69l62.81,18c5.37-5.22,4.52-14.29,3.51-19.33A40.79,40.79,0,0,1,169.49,223Z"/><path class="cls-17" d="M95.7,198.88l74.76,15.42,151.65-8.21s6.39-6.43,1.79-26.17l-91.36-12L97.79,175.55l5,.76s10.06,14-1.54,20.57Z"/><rect class="cls-12" x="189.84" y="184.06" width="5.87" height="29.32" transform="translate(-9.81 10.01) rotate(-2.9)"/><rect class="cls-12" x="200.51" y="183.52" width="5.87" height="29.32" transform="translate(-9.77 10.55) rotate(-2.9)"/><rect class="cls-12" x="295.52" y="181.4" width="5.87" height="25.86" transform="translate(-6.56 10.48) rotate(-1.99)"/><rect class="cls-12" x="306.2" y="181.03" width="5.87" height="25.86" transform="translate(-6.55 10.85) rotate(-1.99)"/><path class="cls-16" d="M174.64,184.91l149.26-5a80.26,80.26,0,0,1,1.3,8.57L176,193.33S176,186.59,174.64,184.91Z"/><path class="cls-13" d="M169.92,212.69a12.36,12.36,0,0,0,5.11-6.56l149.53-7.87a13.77,13.77,0,0,1-2.45,7.83L170.46,214.3,95.7,198.88l3.52-1.28Z"/><g class="cls-37"><path class="cls-12" d="M101,198l68.94,14.74s10.93-4.84,4.72-27.78l-71.86-8.6s5.12,13.61-1.54,20.57Z"/><path class="cls-13" d="M162.77,201.23c-7.66,3.11-16.39,3.18-24.51,2.7a163.43,163.43,0,0,1-25-3.39c-3.7-.8-7.37-1.75-11-2.65l-1.14-.28L101,198l68.94,14.74s9.18-4.08,5.92-22.45A28,28,0,0,1,162.77,201.23Z"/><g class="cls-29"><rect class="cls-22" x="138.15" y="143.44" width="0.53" height="79.81" transform="translate(-62.2 295.27) rotate(-82.11)"/></g><g class="cls-29"><rect class="cls-22" x="138.08" y="147.14" width="0.53" height="79.81" transform="translate(-65.93 298.39) rotate(-82.11)"/></g><g class="cls-29"><rect class="cls-22" x="138.34" y="151.19" width="0.53" height="79.81" transform="translate(-69.72 302.14) rotate(-82.11)"/></g><g class="cls-29"><rect class="cls-22" x="138.94" y="155.25" width="0.53" height="79.81" transform="translate(-73.22 306.24) rotate(-82.11)"/></g><g class="cls-29"><rect class="cls-22" x="138.86" y="159.29" width="0.53" height="79.81" transform="translate(-79.03 306.16) rotate(-81.19)"/></g><g class="cls-29"><rect class="cls-22" x="137.79" y="162.99" width="0.53" height="79.81" transform="translate(-85.29 304.59) rotate(-80.25)"/></g><polygon class="cls-33" points="106.3 182.09 104.94 184.32 126.72 187.91 127.27 185.48 106.3 182.09"/><polygon class="cls-10" points="125.36 192.86 123.96 195.08 145.67 199.03 146.27 196.62 125.36 192.86"/><polygon class="cls-17" points="135.76 202.01 134.36 204.23 156.08 208.18 156.68 205.77 135.76 202.01"/></g><rect class="cls-10" x="134.24" y="94.42" width="195.37" height="29.03"/><rect class="cls-13" x="134.24" y="114.14" width="195.37" height="9.31"/><rect class="cls-16" x="134.24" y="94.42" width="195.37" height="10.74"/><g class="cls-38"><path class="cls-39" d="M142.53,96v25.77H180.7V96Zm37.11,20-.1,0-3.36,2.36-3.53-2.39,3.93-2.82,2.87,2.07.19-.09Zm-7.69-.55-4.5-3,4.07-2.93,4.38,3.15Zm-28.37-.32.11.05,2.87-2.07,3.93,2.82L147,118.29l-3.36-2.36h0Zm3.66-2.51,4.38-3.15,4.07,2.93-4.5,3Zm-3.66-10.73.11,0,3.39-2.39,3.54,2.4-4.06,2.9-3-2.13h0Zm7.74.53,4.5,3-4.2,3-4.38-3.15Zm28.32.35-.1,0-3,2.13-4.06-2.9,3.54-2.4,3.39,2.39.19-.09Zm-3.74,2.57-4.38,3.15-4.2-3,4.5-3ZM170.84,109l-4.09,3-4.48-3,4.35-3Zm-4.19-4-4.4-3.16,4.35-3.13,4.54,3.25Zm-.71.48-4.37,3-4.38-3,4.38-3.15Zm-5.07,3.43-4.48,3-4.09-3,4.22-3ZM156.49,105l-4.49-3,4.54-3.25,4.35,3.13Zm-5.55,4-4.38,3.15-3-2.13v-2l3-2.13Zm5.43,3.91,4.52,3.26-4.35,3.13-4.67-3.34Zm.7-.47,4.5-3,4.5,3-4.5,3.24Zm9.7.47,4.5,3-4.67,3.34-4.35-3.13ZM172.2,109l4.38-3.15,3.06,2.19v1.92l-3.06,2.19Zm5.06-3.64,2.38-1.72V107Zm2.38-4.23-2.88-2,2.88-2Zm-3.57-2.51-2.75-1.94h5.61Zm-.7.47-3.53,2.39-4.56-3.26,2.13-1.54H172Zm-8.77-1.36-1.47-1.05h2.92Zm-.68.49-4.35,3.13-4.35-3.13,2-1.45-.19-.09h5l-.19.09Zm-9.38-.49-1.45-1.05H158Zm-.68.49-4.56,3.26L147.77,99l3.42-2.41h2.54Zm-8.79.4-2.86-1.94h5.61Zm-.69.48-2.8,2V97.15Zm-2.8,4.61,2.3,1.65-2.3,1.64Zm2.3,8.93-2.3,1.66V111Zm-2.3,4.29,2.68,1.89-2.68,1.81Zm3.36,2.37,2.71,1.91h-5.53Zm.7-.48,3.53-2.39,4.69,3.36-2,1.42H151Zm8.9,1.46,1.31.93h-2.6Zm.68-.49,4.35-3.13,4.35,3.13L164,121.12l.08,0h-5l.08,0Zm9.38.49,1.29.93h-2.6Zm.68-.49,4.69-3.36,3.53,2.39-3.39,2.39h-2.86Zm8.92-.49,2.82,1.91h-5.53Zm.68-.48,2.76-2v3.82Zm2.76-4.46-2.38-1.72,2.38-1.7Z"/><rect class="cls-39" x="183.11" y="94.39" width="2.98" height="28.8"/><path class="cls-39" d="M188.63,96v25.77H226.8V96Zm37.12,20-.1,0-3.36,2.36-3.54-2.39,3.93-2.82,2.87,2.07.2-.09Zm-7.7-.55-4.5-3,4.07-2.93,4.38,3.15Zm-28.36-.32.1.05,2.88-2.07,3.93,2.82-3.54,2.39-3.36-2.36h0Zm3.66-2.51,4.37-3.15,4.07,2.93-4.49,3Zm-3.66-10.73.1,0,3.4-2.39,3.53,2.4-4.05,2.9-3-2.13h0Zm7.73.53,4.5,3-4.2,3-4.37-3.15Zm28.33.35-.11,0-3,2.13-4.06-2.9,3.54-2.4,3.4,2.39.19-.09ZM222,105.31l-4.38,3.15-4.19-3,4.49-3ZM216.94,109l-4.09,3-4.48-3,4.36-3Zm-4.19-4-4.4-3.16,4.35-3.13,4.54,3.25Zm-.7.48-4.38,3-4.37-3,4.37-3.15ZM207,108.86l-4.48,3-4.1-3,4.22-3ZM202.6,105l-4.5-3,4.54-3.25,4.35,3.13ZM197,109l-4.38,3.15-3-2.13v-2l3-2.13Zm5.43,3.91,4.52,3.26-4.35,3.13L198,115.91Zm.7-.47,4.5-3,4.5,3-4.5,3.24Zm9.71.47,4.49,3-4.67,3.34-4.35-3.13Zm5.43-3.91,4.37-3.15,3.07,2.19v1.92l-3.07,2.19Zm5.05-3.64,2.39-1.72V107Zm2.39-4.23-2.89-2,2.89-2Zm-3.57-2.51-2.75-1.94H225Zm-.7.47L218,101.43l-4.57-3.26,2.14-1.54h2.53Zm-8.78-1.36-1.47-1.05h2.93Zm-.68.49-4.35,3.13-4.34-3.13,2-1.45-.19-.09h5l-.19.09Zm-9.37-.49-1.46-1.05h2.92Zm-.69.49-4.56,3.26L193.87,99l3.42-2.41h2.54Zm-8.79.4-2.86-1.94h5.61Zm-.68.48-2.8,2V97.15Zm-2.8,4.61,2.29,1.65L189.69,107Zm2.29,8.93-2.29,1.66V111Zm-2.29,4.29,2.67,1.89-2.67,1.81Zm3.36,2.37,2.71,1.91h-5.53Zm.7-.48,3.53-2.39,4.68,3.36-2,1.42h-2.86Zm8.9,1.46,1.3.93h-2.6Zm.68-.49,4.34-3.13,4.35,3.13-1.93,1.38.08,0h-5l.08,0Zm9.37.49,1.29.93H211.4Zm.68-.49,4.69-3.36,3.53,2.39-3.38,2.39h-2.86Zm8.92-.49,2.82,1.91h-5.53Zm.69-.48,2.76-2v3.82Zm2.76-4.46-2.39-1.72,2.39-1.7Z"/><rect class="cls-39" x="229.22" y="94.39" width="2.98" height="28.8"/><path class="cls-39" d="M234.73,96v25.77h38.18V96Zm37.12,20-.1,0-3.36,2.36-3.54-2.39,3.93-2.82,2.88,2.07.19-.09Zm-7.7-.55-4.49-3,4.07-2.93,4.37,3.15Zm-28.36-.32.11.05,2.87-2.07,3.93,2.82-3.54,2.39-3.35-2.36h0Zm3.66-2.51,4.38-3.15,4.07,2.93-4.5,3Zm-3.66-10.73.11,0,3.39-2.39,3.54,2.4-4.06,2.9-3-2.13h0Zm7.74.53,4.49,3-4.19,3-4.38-3.15Zm28.32.35-.1,0-3,2.13-4-2.9,3.53-2.4,3.4,2.39.19-.09Zm-3.74,2.57-4.38,3.15-4.2-3,4.5-3ZM263.05,109l-4.1,3-4.47-3,4.35-3Zm-4.2-4-4.39-3.16,4.35-3.13,4.54,3.25Zm-.7.48-4.37,3-4.38-3,4.38-3.15Zm-5.07,3.43-4.48,3-4.09-3,4.21-3ZM248.7,105l-4.49-3,4.54-3.25,4.35,3.13Zm-5.55,4-4.38,3.15-3-2.13v-2l3-2.13Zm5.43,3.91,4.52,3.26-4.35,3.13-4.67-3.34Zm.7-.47,4.5-3,4.5,3-4.5,3.24Zm9.7.47,4.49,3-4.66,3.34-4.35-3.13Zm5.43-3.91,4.38-3.15,3.06,2.19v1.92l-3.06,2.19Zm5.06-3.64,2.38-1.72V107Zm2.38-4.23-2.89-2,2.89-2Zm-3.57-2.51-2.75-1.94h5.61Zm-.7.47-3.53,2.39-4.56-3.26,2.13-1.54h2.54Zm-8.78-1.36-1.46-1.05h2.92Zm-.68.49-4.34,3.13-4.35-3.13,2-1.45-.19-.09h5l-.19.09Zm-9.37-.49-1.46-1.05h2.93Zm-.68.49-4.56,3.26L240,99l3.43-2.41h2.53Zm-8.8.4-2.85-1.94H242Zm-.68.48-2.8,2V97.15Zm-2.8,4.61,2.3,1.65-2.3,1.64Zm2.3,8.93-2.3,1.66V111Zm-2.3,4.29,2.67,1.89-2.67,1.81Zm3.36,2.37,2.71,1.91h-5.53Zm.7-.48,3.53-2.39,4.69,3.36-2,1.42h-2.87Zm8.9,1.46,1.3.93h-2.59Zm.68-.49,4.35-3.13,4.34,3.13-1.93,1.38.08,0h-5l.08,0Zm9.37.49,1.3.93h-2.6Zm.69-.49,4.68-3.36,3.54,2.39-3.39,2.39h-2.86Zm8.92-.49,2.81,1.91h-5.53Zm.68-.48,2.76-2v3.82Zm2.76-4.46-2.38-1.72,2.38-1.7Z"/><rect class="cls-39" x="275.32" y="94.39" width="2.98" height="28.8"/><path class="cls-39" d="M280.84,96v25.77H319V96ZM318,116l-.1,0-3.36,2.36L311,115.9l3.93-2.82,2.87,2.07.19-.09Zm-7.69-.55-4.5-3,4.07-2.93,4.38,3.15Zm-28.37-.32.11.05,2.87-2.07,3.93,2.82-3.53,2.39-3.36-2.36h0Zm3.66-2.51,4.38-3.15,4.07,2.93-4.5,3Zm-3.66-10.73.11,0,3.39-2.39,3.54,2.4-4.06,2.9-3-2.13h0Zm7.74.53,4.5,3-4.2,3-4.38-3.15Zm28.32.35-.1,0-3,2.13-4.06-2.9,3.54-2.4,3.39,2.39.19-.09Zm-3.74,2.57-4.38,3.15-4.2-3,4.5-3ZM309.15,109l-4.09,3-4.48-3,4.35-3ZM305,105l-4.4-3.16,4.35-3.13,4.54,3.25Zm-.7.48-4.38,3-4.37-3,4.37-3.15Zm-5.08,3.43-4.48,3-4.09-3,4.22-3ZM294.8,105l-4.49-3,4.54-3.25,4.35,3.13Zm-5.55,4-4.38,3.15-3-2.13v-2l3-2.13Zm5.43,3.91,4.52,3.26-4.35,3.13-4.67-3.34Zm.7-.47,4.5-3,4.5,3-4.5,3.24Zm9.7.47,4.5,3-4.67,3.34-4.35-3.13Zm5.43-3.91,4.38-3.15L318,108v1.92l-3.06,2.19Zm5.06-3.64,2.38-1.72V107Zm2.38-4.23-2.88-2,2.88-2Zm-3.57-2.51-2.75-1.94h5.61Zm-.7.47-3.53,2.39-4.56-3.26,2.14-1.54h2.53Zm-8.77-1.36-1.47-1.05h2.92Zm-.68.49-4.35,3.13-4.35-3.13,2-1.45-.19-.09h5l-.19.09Zm-9.38-.49-1.45-1.05h2.92Zm-.68.49-4.56,3.26L286.08,99l3.42-2.41H292Zm-8.79.4-2.86-1.94h5.61Zm-.69.48-2.8,2V97.15Zm-2.8,4.61,2.3,1.65-2.3,1.64Zm2.3,8.93-2.3,1.66V111Zm-2.3,4.29,2.68,1.89-2.68,1.81Zm3.36,2.37,2.71,1.91h-5.53Zm.7-.48,3.53-2.39,4.69,3.36-2,1.42h-2.86Zm8.9,1.46,1.31.93h-2.6Zm.68-.49,4.35-3.13,4.35,3.13-1.94,1.38.08,0h-5l.08,0Zm9.38.49,1.29.93h-2.6Zm.68-.49,4.69-3.36,3.53,2.39-3.39,2.39h-2.86Zm8.92-.49,2.82,1.91H311.8Zm.68-.48,2.76-2v3.82Zm2.76-4.46-2.38-1.72,2.38-1.7Z"/></g><polygon class="cls-7" points="330.92 149.65 133.46 144.68 132.93 122.71 330.92 122.71 330.92 149.65"/><rect class="cls-10" x="175.7" y="127.25" width="145.27" height="14.95" rx="7.07"/><circle class="cls-10" cx="157.27" cy="135" r="7.74" transform="translate(-10.34 256.91) rotate(-76.67)"/><polygon class="cls-16" points="330.92 129.4 330.92 122.71 132.93 122.71 133.09 129.4 330.92 129.4"/><polygon class="cls-13" points="133.38 141.45 133.46 144.68 330.92 149.65 330.92 141.45 133.38 141.45"/><path class="cls-39" d="M164.74,178.89l.27-33.61,166.09,3s6.41,15.3-1.6,30.6Z"/><path class="cls-39" d="M165.19,179s-37.72-5.17-53-9.48c0,0-1.63-2.58,3.73-1.44,0,0,15.39-9.56.29-22.49,0,0-5.56.28-5.27-1.15s54.28,1.15,54.28,1.15Z"/><path class="cls-17" d="M259.39,164.06a16.22,16.22,0,0,0-3.13-9.08,14.26,14.26,0,0,0-.21,18.09A16.24,16.24,0,0,0,259.39,164.06Z"/><path class="cls-18" d="M255.38,172.93c11.94-.05,21.59-8.82,21.59-8.82s-9.71-8.7-21.65-8.66-21.58,8.81-21.58,8.81S243.44,173,255.38,172.93Z"/><polygon class="cls-17" points="191.3 169.7 187.42 166.92 184.69 170.18 181.97 166.92 178.09 169.7 180.87 165.82 177.61 163.1 180.87 160.37 178.08 156.49 181.96 159.27 184.69 156.01 187.42 159.27 191.3 156.49 188.51 160.37 191.77 163.09 188.54 166.1 191.3 169.7"/><polygon class="cls-17" points="324.9 170.71 321.02 167.93 318.3 171.19 315.57 167.93 311.69 170.71 314.47 166.83 311.21 164.11 314.47 161.38 311.69 157.5 315.56 160.28 318.29 157.02 321.02 160.28 324.9 157.5 322.12 161.37 325.38 164.1 322.14 167.11 324.9 170.71"/><ellipse class="cls-40" cx="260.99" cy="162.07" rx="4.13" ry="2.07"/><g class="cls-41"><path class="cls-12" d="M116.18,167.85l48.56,8.64.16-27.59-48.34-3.26S125.26,158.51,116.18,167.85Z"/><path class="cls-13" d="M138.68,168.49a123,123,0,0,1-22.28-.89,2.62,2.62,0,0,1-.22.25l48.56,8.64.1-17C157.47,165.5,148,167.86,138.68,168.49Z"/><g class="cls-21"><rect class="cls-22" x="137.49" y="120.83" width="0.53" height="58.77" transform="translate(-25.2 272.64) rotate(-84.4)"/></g><g class="cls-21"><rect class="cls-22" x="137.7" y="125.61" width="0.53" height="58.77" transform="translate(-29.76 277.16) rotate(-84.4)"/></g><g class="cls-21"><rect class="cls-22" x="137.92" y="130.09" width="0.53" height="58.77" transform="translate(-34.02 281.43) rotate(-84.4)"/></g><g class="cls-21"><rect class="cls-22" x="137.84" y="134.27" width="0.53" height="58.77" transform="translate(-38.25 285.12) rotate(-84.4)"/></g><g class="cls-21"><rect class="cls-22" x="137.75" y="139.05" width="0.53" height="58.77" transform="matrix(0.14, -0.99, 0.99, 0.14, -47.78, 281.99)"/></g></g><path class="cls-39" d="M154.24,169.88s-4.66,14.47,0,25.17l2.87-1s-1.61-18.35,1.68-23.08Z"/><path class="cls-16" d="M167.29,145.58l163.81,2.71s2.09,6.22,2.09,10.84l-165.6-4A19.24,19.24,0,0,0,167.29,145.58Z"/><rect class="cls-33" x="125.76" y="38.08" width="197.72" height="56.94"/><rect class="cls-28" x="122.25" y="57.4" width="56.59" height="18.46" transform="translate(84.48 217.42) rotate(-90.21)"/><path class="cls-17" d="M149.09,90.73a12.5,12.5,0,0,1-5.27-6.13s4.47-1.07,8.18.86a12.51,12.51,0,0,1,5.28,6.12S152.81,92.66,149.09,90.73Z"/><path class="cls-17" d="M149,76.69a12.47,12.47,0,0,0-5.23,6.16s4.48,1,8.18-.91a12.58,12.58,0,0,0,5.23-6.17S152.74,74.73,149,76.69Z"/><path class="cls-17" d="M149,56.26a12.5,12.5,0,0,1-5.27-6.13s4.47-1.07,8.18.85a12.55,12.55,0,0,1,5.28,6.13S152.68,58.18,149,56.26Z"/><path class="cls-17" d="M148.91,42.21a12.58,12.58,0,0,0-5.23,6.17s4.48,1,8.18-.91a12.58,12.58,0,0,0,5.23-6.17S152.61,40.26,148.91,42.21Z"/><path class="cls-17" d="M151.91,60.09a12.5,12.5,0,0,1,5.27,6.13s-4.47,1.07-8.18-.86a12.55,12.55,0,0,1-5.28-6.13S148.19,58.16,151.91,60.09Z"/><path class="cls-17" d="M152,74.13A12.53,12.53,0,0,0,157.19,68s-4.48-1-8.18.91a12.53,12.53,0,0,0-5.23,6.17S148.26,76.09,152,74.13Z"/><rect class="cls-17" x="132.39" y="65.35" width="56.52" height="2.56" transform="translate(227.28 -94.03) rotate(90)"/><rect class="cls-17" x="112.41" y="65.35" width="56.52" height="2.56" transform="translate(207.3 -74.05) rotate(90)"/><rect class="cls-28" x="192.77" y="57.4" width="56.59" height="18.46" transform="translate(155.26 287.94) rotate(-90.21)"/><path class="cls-17" d="M219.61,90.73a12.55,12.55,0,0,1-5.28-6.13s4.48-1.07,8.19.86a12.51,12.51,0,0,1,5.28,6.12S223.33,92.66,219.61,90.73Z"/><path class="cls-17" d="M219.56,76.69a12.47,12.47,0,0,0-5.23,6.16s4.48,1,8.18-.91a12.58,12.58,0,0,0,5.23-6.17S223.26,74.73,219.56,76.69Z"/><path class="cls-17" d="M219.48,56.26a12.5,12.5,0,0,1-5.27-6.13s4.47-1.07,8.18.85a12.55,12.55,0,0,1,5.28,6.13S223.2,58.18,219.48,56.26Z"/><path class="cls-17" d="M219.43,42.21a12.51,12.51,0,0,0-5.23,6.17s4.48,1,8.18-.91a12.58,12.58,0,0,0,5.23-6.17S223.13,40.26,219.43,42.21Z"/><path class="cls-17" d="M222.43,60.09a12.5,12.5,0,0,1,5.27,6.13s-4.47,1.07-8.19-.86a12.57,12.57,0,0,1-5.27-6.13S218.71,58.16,222.43,60.09Z"/><path class="cls-17" d="M222.48,74.13A12.53,12.53,0,0,0,227.71,68s-4.48-1-8.18.91a12.47,12.47,0,0,0-5.23,6.17S218.78,76.09,222.48,74.13Z"/><rect class="cls-17" x="202.91" y="65.35" width="56.52" height="2.56" transform="translate(297.8 -164.55) rotate(90)"/><rect class="cls-17" x="182.93" y="65.35" width="56.52" height="2.56" transform="translate(277.82 -144.57) rotate(90)"/><rect class="cls-28" x="268.49" y="57.4" width="56.59" height="18.46" transform="translate(231.27 363.66) rotate(-90.21)"/><path class="cls-17" d="M295.33,90.73a12.57,12.57,0,0,1-5.27-6.13s4.47-1.07,8.19.86a12.52,12.52,0,0,1,5.27,6.12S299.05,92.66,295.33,90.73Z"/><path class="cls-17" d="M295.28,76.69a12.53,12.53,0,0,0-5.23,6.16s4.48,1,8.18-.91a12.51,12.51,0,0,0,5.23-6.17S299,74.73,295.28,76.69Z"/><path class="cls-17" d="M295.2,56.26a12.57,12.57,0,0,1-5.27-6.13s4.47-1.07,8.19.85a12.5,12.5,0,0,1,5.27,6.13S298.92,58.18,295.2,56.26Z"/><path class="cls-17" d="M295.15,42.21a12.58,12.58,0,0,0-5.23,6.17s4.48,1,8.18-.91a12.51,12.51,0,0,0,5.23-6.17A13.28,13.28,0,0,0,295.15,42.21Z"/><path class="cls-17" d="M298.15,60.09a12.55,12.55,0,0,1,5.28,6.13s-4.47,1.07-8.19-.86A12.55,12.55,0,0,1,290,59.23S294.43,58.16,298.15,60.09Z"/><path class="cls-17" d="M298.2,74.13A12.47,12.47,0,0,0,303.43,68a13.28,13.28,0,0,0-8.18.91A12.53,12.53,0,0,0,290,75.05S294.5,76.09,298.2,74.13Z"/><rect class="cls-17" x="278.64" y="65.35" width="56.52" height="2.56" transform="translate(373.53 -240.27) rotate(90)"/><rect class="cls-17" x="258.66" y="65.35" width="56.52" height="2.56" transform="translate(353.55 -220.29) rotate(90)"/><rect class="cls-16" x="125.76" y="38.08" width="197.72" height="17.31"/><rect class="cls-13" x="125.76" y="80.06" width="197.72" height="14.97"/><ellipse class="cls-3" cx="69.49" cy="320.94" rx="40.87" ry="5.58"/><g class="cls-42"><path class="cls-9" d="M51.46,259.34c-7-1.66-15-5.54-15.64-12.71-.34-4,1.89-8.08.93-12-1-4.2-5.2-6.67-8.79-9.07s-7.29-6.07-6.51-10.32c.71-3.87,4.88-6.28,5.91-10.07,1.81-6.62-6.56-11.92-7.12-18.76-.5-6.06,6.06-11.1,12.1-10.36s10.83,5.88,12.78,11.64c.92,2.74,1.36,5.71,2.94,8.14,3.93,6,13.51,6.63,16.55,13.1,2.28,4.87-.25,11,2,15.86,1.47,3.13,4.63,5.08,6.81,7.78,4.58,5.66,4.07,14.48-.37,20.25S61,261.38,53.72,260.91Z"/><g class="cls-43"><path class="cls-12" d="M58.35,260.76c-.84-.18-1.69-.36-2.53-.56-3.54-.82-7.15-2-9.75-4.68-3.38-3.48-4.08-8.41-4.38-13.05a21.41,21.41,0,0,0-1.53-6.94,18.33,18.33,0,0,0-2.75-4.4c-2.74-3.39-5.72-6.69-7.37-10.79-1.76-4.39-.49-8.59.86-12.88a17.78,17.78,0,0,0,1.09-5.9,11.33,11.33,0,0,0-.52-2.86,9.93,9.93,0,0,0-.8-2.07c-1.5-3.08-3.5-5.21-5.67-8a24.65,24.65,0,0,1-4-6.4,8.12,8.12,0,0,0-.77,4.14c.56,6.84,8.93,12.14,7.12,18.76-1,3.79-5.2,6.2-5.91,10.07-.78,4.25,2.92,7.92,6.51,10.32s7.77,4.87,8.79,9.07c1,3.92-1.27,8-.93,12,.62,7.17,8.64,11.05,15.64,12.71l2.26,1.57A24.73,24.73,0,0,0,58.35,260.76Z"/></g><g class="cls-44"><path class="cls-39" d="M61.22,262.71l-.72.18c-.18-.7-17.91-70.44-35.75-87.08l.51-.55C43.25,192.05,61,262,61.22,262.71Z"/></g><g class="cls-44"><path class="cls-39" d="M53.83,195.76l-9.66,15.79-.29-.11c-.68-.24-16.76-6-18.54-8.12l.57-.48c1.34,1.62,13.13,6.08,17.94,7.8l9.34-15.27Z"/></g><g class="cls-44"><polygon class="cls-39" points="69.69 218.46 53.27 237.82 28.69 229.96 28.91 229.25 53.03 236.96 69.12 217.98 69.69 218.46"/></g></g><g class="cls-45"><path class="cls-9" d="M61.52,256.38c-7.17-4.85-14.54-12.63-12.17-20.95,1.32-4.68,5.56-8.28,6.16-13.1.64-5.15-3-9.71-6-13.94s-5.61-9.94-2.92-14.38c2.44-4,8.16-5,10.93-8.8,4.85-6.67-2.3-16.2,0-24.13,2-7,11.55-9.89,18-6.49s9.68,11.22,9.42,18.53c-.13,3.48-.91,7-.16,10.4,1.87,8.39,12.35,13.21,13,21.78.5,6.45-5,12.25-4.47,18.7.32,4.15,3,7.69,4.34,11.64,2.73,8.32-1.59,18-9,22.62s-17.24,4.47-25.21.84Z"/><g class="cls-43"><path class="cls-12" d="M68.66,260.91c-.87-.56-1.75-1.13-2.61-1.71-3.63-2.43-7.18-5.3-9-9.41-2.33-5.36-1-11.2.62-16.54A25.6,25.6,0,0,0,59,224.79a22.16,22.16,0,0,0-1.21-6.12c-1.64-5-3.59-9.95-3.69-15.27-.12-5.68,3.11-9.86,6.44-14.11a21.36,21.36,0,0,0,3.75-6.17,13.58,13.58,0,0,0,.63-3.43,11.46,11.46,0,0,0,0-2.68c-.38-4.09-1.71-7.34-3-11.35a29.75,29.75,0,0,1-1.76-8.9,9.78,9.78,0,0,0-2.64,4.32c-2.28,7.93,4.87,17.46,0,24.13C54.72,189,49,190,46.56,194c-2.69,4.44-.09,10.16,2.92,14.38s6.67,8.79,6,13.94c-.6,4.82-4.84,8.42-6.16,13.1-2.37,8.32,5,16.1,12.17,20.95l1.87,2.72A29.54,29.54,0,0,0,68.66,260.91Z"/></g><g class="cls-44"><path class="cls-39" d="M71.06,264.32l-.89-.1c.1-.87,9.86-86.83-3.1-113.13l.8-.4C81,177.23,71.16,263.45,71.06,264.32Z"/></g><g class="cls-44"><path class="cls-39" d="M91.26,185.9,73.67,199.54l-.27-.24c-.67-.56-16.3-13.86-17.39-17l.84-.3c.83,2.4,12.18,12.44,16.85,16.41l17-13.19Z"/></g><g class="cls-44"><polygon class="cls-39" points="99.42 218.18 72.72 232.95 48.43 213.65 48.98 212.95 72.81 231.88 98.99 217.4 99.42 218.18"/></g></g><rect class="cls-17" x="36.18" y="261.05" width="61.49" height="60.63" rx="11.51"/><path class="cls-46" d="M97.67,295.38v-20.9a13.46,13.46,0,0,0-13.42-13.43H49.6a13.46,13.46,0,0,0-13.42,13.43v20.9Z"/><rect class="cls-17" x="32.28" y="253.26" width="69.29" height="34.64"/><rect class="cls-16" x="32.28" y="253.26" width="69.29" height="13.54"/><path class="cls-3" d="M413.5,326.35c0,3.59-20.59,6.51-46,6.51s-46-2.92-46-6.51,20.59-6.52,46-6.52S413.5,322.75,413.5,326.35Z"/><path class="cls-12" d="M411.58,323.15c0,3.35-17.2,6.07-38.42,6.07s-38.42-2.72-38.42-6.07,17.2-6.08,38.42-6.08S411.58,319.79,411.58,323.15Z"/><path class="cls-47" d="M387,323.15c0,1.2-6.19,2.18-13.83,2.18s-13.83-1-13.83-2.18,6.19-2.19,13.83-2.19S387,321.94,387,323.15Z"/><path class="cls-12" d="M404.34,289.16a7.54,7.54,0,0,0-1.43.15c0-.72.06-1.43.06-2.15a44.91,44.91,0,0,0-.27-4.82H343.6a44.91,44.91,0,0,0-.27,4.82c0,20.15,13.35,36.48,29.82,36.48,11.76,0,21.93-8.34,26.78-20.44a7.64,7.64,0,0,0,4.41,1.41,7.73,7.73,0,1,0,0-15.45Zm-2,13.47a5.9,5.9,0,0,1-2.07-.39,43.24,43.24,0,0,0,2.52-11.44,5.92,5.92,0,0,1-.45,11.83Z"/><path class="cls-47" d="M398.09,304.67a25.05,25.05,0,0,1-16.22,11.71c-6.78,1.37-13.7.08-19.95-2.73a39.33,39.33,0,0,1-17-14.78c4,14.4,15.12,24.77,28.24,24.77,14.92,0,27.29-13.42,29.47-30.93A37.87,37.87,0,0,1,398.09,304.67Z"/><ellipse class="cls-12" cx="373.15" cy="282.63" rx="30.02" ry="8.06"/><ellipse class="cls-22" cx="373.15" cy="282.63" rx="25.7" ry="6.9"/><path class="cls-48" d="M364.4,278.16a57.23,57.23,0,0,0-6.93,1,19.25,19.25,0,0,0-3.32,1,6.1,6.1,0,0,0-1.44.81,1.48,1.48,0,0,0-.66,1.17,2.06,2.06,0,0,0,.66,1.25l.27.25.34.21a4.44,4.44,0,0,0,.72.37,16.84,16.84,0,0,0,3.27.93,55.23,55.23,0,0,0,6.92.74c4.65.31,9.34.25,14,.12,2.33-.07,4.67-.19,7-.38,1.17-.09,2.33-.18,3.49-.33.58-.08,1.16-.16,1.73-.27a5.39,5.39,0,0,0,1.67-.51,5.27,5.27,0,0,1-1.63.66c-.57.15-1.15.28-1.72.39-1.16.23-2.32.41-3.49.57-2.33.3-4.67.51-7,.68a125.29,125.29,0,0,1-14.11.13,56.13,56.13,0,0,1-7-.86,17.39,17.39,0,0,1-3.46-1,3.55,3.55,0,0,1-2.43-2.9,2.24,2.24,0,0,1,1-1.76,6.63,6.63,0,0,1,1.65-.85,19.2,19.2,0,0,1,3.46-.85A46.16,46.16,0,0,1,364.4,278.16Z"/><path class="cls-48" d="M362.94,283c1.16-.08,2.31-.1,3.46-.16l3.44-.1,6.88-.17q3.43-.06,6.86-.23c1.14-.06,2.28-.14,3.4-.29a13.4,13.4,0,0,0,1.68-.29,3.1,3.1,0,0,0,1.52-.71,2.87,2.87,0,0,1-1.43,1,17,17,0,0,1-1.67.53c-1.13.26-2.28.43-3.43.59a66.46,66.46,0,0,1-6.91.48c-2.3,0-4.61,0-6.91-.08S365.23,283.32,362.94,283Z"/><path class="cls-48" d="M368.29,278.64a59,59,0,0,1,8.26-.77,57.41,57.41,0,0,1,8.28.29,64.8,64.8,0,0,1-16.54.48Z"/><path class="cls-12" d="M371.52,269.41a7.26,7.26,0,0,0-2-4.39,26.94,26.94,0,0,0-3.62-3.28,17.4,17.4,0,0,1-3.87-4.14,11.21,11.21,0,0,1-1.66-6,7.82,7.82,0,0,1,3.06-6.07,5.42,5.42,0,0,1,1.88-.83,5.1,5.1,0,0,1,2.06,0,5.69,5.69,0,0,1,3.06,1.89,9.51,9.51,0,0,1,1.57,2.57,13.67,13.67,0,0,1,.85,2.68,12.22,12.22,0,0,1-.1,5.42,19.77,19.77,0,0,0-1.86-4.72,12.65,12.65,0,0,0-2.79-3.58,2.41,2.41,0,0,0-1.37-.59,1.32,1.32,0,0,0-.93.37,4.55,4.55,0,0,0-1.21,3,8.25,8.25,0,0,0,.05.94,8.92,8.92,0,0,0,.18,1,8.32,8.32,0,0,0,.69,1.92,20.17,20.17,0,0,0,2.73,3.77,18.63,18.63,0,0,1,3.05,4.56A6.65,6.65,0,0,1,371.52,269.41Z"/><path class="cls-12" d="M376.4,258.79a5.69,5.69,0,0,1,.54-3.93,4.15,4.15,0,0,1,4.41-2.05,5.91,5.91,0,0,1,4,3,6.6,6.6,0,0,1,.79,2.4,8,8,0,0,1-.09,2.39,7.78,7.78,0,0,1-2.25,4.13,12.06,12.06,0,0,1-3.43,2.1c-.52.24-1,.46-1.43.7a4.92,4.92,0,0,0-1.14.84,3,3,0,0,0-1,2.87,2.51,2.51,0,0,1-1-1.74,4.52,4.52,0,0,1,.23-2.15,5.76,5.76,0,0,1,1.12-1.92,11.81,11.81,0,0,1,1.46-1.39,17.41,17.41,0,0,0,2.34-2.1,4.92,4.92,0,0,0,1-2.15,4.13,4.13,0,0,0,.09-1.16,3.31,3.31,0,0,0-.21-1,3.25,3.25,0,0,0-1.26-1.6,1.72,1.72,0,0,0-2,.17A7.6,7.6,0,0,0,376.4,258.79Z"/><polygon class="cls-5" points="358.65 131.34 354.29 118.51 341.34 114.49 354.63 109.91 358.85 96.5 363.21 109.34 376.17 113.35 362.6 118.26 358.65 131.34"/><polygon class="cls-5" points="85.94 145.64 81.57 132.8 68.62 128.78 81.91 124.2 86.13 110.79 90.5 123.63 103.45 127.65 89.88 132.56 85.94 145.64"/><polygon class="cls-12" points="65.76 114.37 63.53 107.83 56.93 105.78 63.7 103.44 65.86 96.61 68.08 103.15 74.68 105.2 67.77 107.7 65.76 114.37"/><polygon class="cls-49" points="25.53 163.39 23.31 156.85 16.7 154.8 23.48 152.46 25.63 145.63 27.86 152.17 34.46 154.22 27.54 156.72 25.53 163.39"/><polygon class="cls-49" points="371.54 84.02 369.31 77.48 362.71 75.43 369.48 73.1 371.63 66.26 373.86 72.81 380.46 74.85 373.55 77.36 371.54 84.02"/><polygon class="cls-49" points="338.26 48.48 336.03 41.94 329.43 39.89 336.2 37.55 338.36 30.72 340.58 37.26 347.18 39.31 340.27 41.81 338.26 48.48"/><polygon class="cls-12" points="407.29 232.96 405.07 226.42 398.47 224.37 405.24 222.04 407.39 215.2 409.62 221.75 416.22 223.79 409.3 226.29 407.29 232.96"/><polygon class="cls-5" points="341.83 86.19 339.61 79.65 333 77.6 339.78 75.26 341.93 68.43 344.16 74.97 350.76 77.02 343.84 79.52 341.83 86.19"/><polygon class="cls-5" points="393.31 210.43 391.09 203.89 384.49 201.84 391.26 199.5 393.41 192.67 395.64 199.21 402.24 201.26 395.32 203.76 393.31 210.43"/><path class="cls-5" d="M60.05,150.09a1.95,1.95,0,1,1-1.95-2A1.94,1.94,0,0,1,60.05,150.09Z"/><path class="cls-5" d="M97.2,163.33a1.95,1.95,0,1,1-1.94-1.94A1.94,1.94,0,0,1,97.2,163.33Z"/><path class="cls-5" d="M398.48,179.64a1.95,1.95,0,1,1-2-1.95A1.94,1.94,0,0,1,398.48,179.64Z"/><path class="cls-5" d="M78.57,80.63a1.95,1.95,0,1,1-1.95-1.94A1.95,1.95,0,0,1,78.57,80.63Z"/><path class="cls-5" d="M402.45,243.47a1.95,1.95,0,1,1-1.95-1.95A2,2,0,0,1,402.45,243.47Z"/></g></g></svg>